HIERARCHY
ROOT Hips
{
	OFFSET 44.810799 9.715415 95.362503
	CHANNELS 6 Xposition Yposition Zposition Xrotation Yrotation Zrotation
	JOINT spine
	{
		OFFSET 0.000000 -0.467661 8.132492
		CHANNELS 3 Xrotation Yrotation Zrotation
		JOINT spine1
		{
			OFFSET 0.000000 -0.000001 10.349800
			CHANNELS 3 Xrotation Yrotation Zrotation
			JOINT spine2
			{
				OFFSET 0.000000 -0.000002 9.916992
				CHANNELS 3 Xrotation Yrotation Zrotation
				JOINT Neck
				{
					OFFSET 0.000000 -1.213903 25.461006
					CHANNELS 3 Xrotation Yrotation Zrotation
					JOINT Head
					{
						OFFSET 0.000000 -0.000002 7.692444
						CHANNELS 3 Xrotation Yrotation Zrotation
						End Site
						{
							OFFSET 0.000000 6.140627 18.619995
						}
					}
				}
				JOINT RightShoulder
				{
					OFFSET -4.175751 0.581443 10.709602
					CHANNELS 3 Xrotation Yrotation Zrotation
					JOINT RightArm
					{
						OFFSET 0.000000 -0.000002 14.046600
						CHANNELS 3 Xrotation Yrotation Zrotation
						JOINT RightArmRoll
						{
							OFFSET 0.000000 -0.000002 7.090973
							CHANNELS 3 Xrotation Yrotation Zrotation
							JOINT RightForeArm
							{
								OFFSET 0.000000 -0.000003 20.653503
								CHANNELS 3 Xrotation Yrotation Zrotation
								JOINT RightForeArmRoll
								{
									OFFSET 0.000000 -0.000001 7.957184
									CHANNELS 3 Xrotation Yrotation Zrotation
									JOINT RightHand
									{
										OFFSET 0.000000 -0.000003 15.968307
										CHANNELS 3 Xrotation Yrotation Zrotation
										End Site
										{
											OFFSET 0.000000 0.000000 0.100006
										}
									}
								}
							}
						}
					}
				}
				JOINT LeftShoulder
				{
					OFFSET 4.175751 0.581443 10.709602
					CHANNELS 3 Xrotation Yrotation Zrotation
					JOINT LeftArm
					{
						OFFSET 0.000000 -0.000002 14.046600
						CHANNELS 3 Xrotation Yrotation Zrotation
						JOINT LeftArmRoll
						{
							OFFSET 0.000000 -0.000002 7.090988
							CHANNELS 3 Xrotation Yrotation Zrotation
							JOINT LeftForeArm
							{
								OFFSET 0.000000 -0.000003 20.653503
								CHANNELS 3 Xrotation Yrotation Zrotation
								JOINT LeftForeArmRoll
								{
									OFFSET 0.000000 -0.000001 7.957184
									CHANNELS 3 Xrotation Yrotation Zrotation
									JOINT LeftHand
									{
										OFFSET 0.000000 -0.000003 15.968292
										CHANNELS 3 Xrotation Yrotation Zrotation
										End Site
										{
											OFFSET 0.000000 0.000000 0.100006
										}
									}
								}
							}
						}
					}
				}
			}
		}
	}
	JOINT RightUpLeg
	{
		OFFSET -7.208340 1.108840 -1.321823
		CHANNELS 3 Xrotation Yrotation Zrotation
		JOINT RightUpLegRoll
		{
			OFFSET 0.000000 -0.000003 18.723801
			CHANNELS 3 Xrotation Yrotation Zrotation
			JOINT RightLeg
			{
				OFFSET 0.000000 0.000004 -23.186600
				CHANNELS 3 Xrotation Yrotation Zrotation
				JOINT RightLegRoll
				{
					OFFSET 0.000000 -0.000004 23.262398
					CHANNELS 3 Xrotation Yrotation Zrotation
					JOINT RightFoot
					{
						OFFSET 0.000000 -0.000004 19.362099
						CHANNELS 3 Xrotation Yrotation Zrotation
						JOINT RightToeBase
						{
							OFFSET 0.000000 -0.000002 16.185699
							CHANNELS 3 Xrotation Yrotation Zrotation
							End Site
							{
								OFFSET 0.006859 0.903521 7.838623
							}
						}
					}
				}
			}
		}
	}
	JOINT LeftUpLeg
	{
		OFFSET 7.208340 1.108840 -1.321823
		CHANNELS 3 Xrotation Yrotation Zrotation
		JOINT LeftUpLegRoll
		{
			OFFSET 0.000000 -0.000003 18.723900
			CHANNELS 3 Xrotation Yrotation Zrotation
			JOINT LeftLeg
			{
				OFFSET 0.000000 -0.000004 23.186501
				CHANNELS 3 Xrotation Yrotation Zrotation
				JOINT LeftLegRoll
				{
					OFFSET 0.000000 -0.000004 23.477509
					CHANNELS 3 Xrotation Yrotation Zrotation
					JOINT LeftFoot
					{
						OFFSET 0.000000 -0.000004 19.147003
						CHANNELS 3 Xrotation Yrotation Zrotation
						JOINT LeftToeBase
						{
							OFFSET 0.000000 -0.000002 16.185699
							CHANNELS 3 Xrotation Yrotation Zrotation
							End Site
							{
								OFFSET -0.030746 0.903521 7.838623
							}
						}
					}
				}
			}
		}
	}
}
MOTION
Frames: 8
Frame Time: 0.041667
43.389999 -8.785459 91.847900 -2.022871 0.088589 0.023647 -0.611344 -0.015498 0.179075 2.774481 -0.036459 0.358130 4.419541 -0.032167 0.358540 7.975190 -12.186387 -3.052055 3.853014 17.889468 -4.471237 -26.900912 -29.215055 -33.842249 -138.836477 -195.348369 -77.938940 -0.000003 -0.000016 -0.000007 22.935280 15.865607 0.600936 -0.000001 0.000001 -3.008129 -5.000208 -7.999232 0.000091 -23.142841 14.241525 29.272377 -140.172489 184.499160 69.202029 0.000001 0.000001 0.000004 19.738670 -15.924801 -0.393003 0.000005 -0.000017 3.003779 -5.000252 7.998940 -0.000134 -14.765626 -164.233374 2.742946 -179.999991 0.000005 -1.079998 144.202697 4.196423 0.637756 0.000000 0.000004 1.751850 76.459105 6.288039 3.225151 27.571044 -7.260852 2.727214 -9.630882 167.556234 2.704795 -0.000021 -0.000003 -1.294390 -36.175096 -9.988569 -2.632032 -0.000002 -0.000000 -2.616230 77.488059 -6.035859 -3.985581 30.379643 6.866851 -6.001961 
43.383400 -8.750609 91.555283 -1.978653 0.119550 0.037648 -0.605826 -0.024760 0.180767 2.785081 -0.053582 0.361507 4.430152 -0.049248 0.362122 7.833686 -12.211564 -3.067173 3.974497 17.953002 -4.497682 -26.993121 -29.118377 -33.981694 -138.919614 -195.903882 -77.468122 0.000001 -0.000022 -0.000009 23.469157 15.953993 0.605679 0.000000 0.000002 -3.008140 -5.000205 -7.999231 0.000091 -23.139861 14.117822 29.276615 -140.186231 184.860600 68.891105 0.000001 0.000000 0.000004 19.973189 -15.914908 -0.409139 0.000006 -0.000017 3.003810 -5.000254 7.998942 -0.000134 -15.218274 -164.271842 2.643783 -179.999991 0.000006 -1.074002 143.181775 4.296198 0.730724 -0.000000 0.000002 1.936538 77.512443 6.244694 3.360688 27.361376 -7.278665 2.460176 -10.038374 167.619413 2.838742 -0.000020 -0.000004 -1.319660 -37.166461 -10.204086 -2.826564 -0.000001 0.000000 -2.867189 78.415640 -5.980825 -4.197536 30.142987 6.913126 -5.711555 
43.352402 -8.707227 91.253685 -1.932157 0.152330 0.045419 -0.599261 -0.033839 0.182796 2.797862 -0.070458 0.365555 4.442924 -0.066074 0.366373 7.650479 -12.238437 -3.083913 4.134653 18.015838 -4.527411 -27.095775 -29.035226 -34.133891 -138.995101 -196.463821 -76.992310 -0.000000 -0.000020 -0.000008 24.029026 16.026221 0.608040 0.000001 0.000002 -3.008150 -5.000205 -7.999230 0.000091 -23.150813 13.997472 29.302358 -140.198853 185.228283 68.550852 0.000000 0.000001 0.000004 20.247206 -15.891029 -0.425661 0.000005 -0.000017 3.003849 -5.000253 7.998940 -0.000134 -15.667370 -164.315801 2.539245 -179.999991 0.000005 -1.069002 142.190209 4.396282 0.822952 -0.000004 0.000004 2.112540 78.515900 6.205258 3.498871 27.163845 -7.293728 2.208674 -10.436948 167.679778 2.970476 -0.000019 -0.000004 -1.344079 -38.132448 -10.407165 -3.021382 -0.000003 -0.000000 -3.110718 79.309015 -5.932256 -4.405763 29.918909 6.954725 -5.437260 
43.340000 -8.668902 90.954903 -1.883367 0.186997 0.046221 -0.591485 -0.042627 0.185178 2.813143 -0.086908 0.370307 4.458204 -0.082466 0.371323 7.420519 -12.268656 -3.102651 4.338216 18.079048 -4.561089 -27.209969 -28.966549 -34.300339 -139.060766 -197.028254 -76.512804 0.000001 -0.000021 -0.000007 24.617583 16.079811 0.608016 0.000001 0.000001 -3.008160 -5.000206 -7.999229 0.000091 -23.177839 13.879368 29.352847 -140.212008 185.603793 68.176244 -0.000002 -0.000001 0.000004 20.566714 -15.851995 -0.442941 0.000006 -0.000017 3.003879 -5.000252 7.998941 -0.000134 -16.109718 -164.366918 2.429310 -179.999991 0.000005 -1.064002 141.236632 4.494876 0.910798 -0.000002 0.000004 2.277100 79.453521 6.168873 3.638711 26.983808 -7.306009 1.979639 -10.824028 167.737220 3.099597 -0.000020 -0.000004 -1.367240 -39.066708 -10.595673 -3.213771 -0.000005 0.000002 -3.343869 80.156511 -5.889255 -4.606985 29.714714 6.990752 -5.187916 
43.306599 -8.609155 90.659294 -1.832280 0.223615 0.039309 -0.582342 -0.051016 0.187926 2.831275 -0.102754 0.375797 4.476337 -0.098246 0.377000 7.138763 -12.303836 -3.123814 4.589894 18.143470 -4.599381 -27.336729 -28.913389 -34.482347 -139.114657 -197.597236 -76.031870 -0.000001 -0.000018 -0.000008 25.237503 16.112117 0.605858 -0.000000 0.000001 -3.008170 -5.000205 -7.999231 0.000091 -23.223038 13.762123 29.431207 -140.228005 185.988565 67.758004 0.000001 0.000002 0.000004 20.937296 -15.797012 -0.461442 0.000007 -0.000017 3.003920 -5.000252 7.998941 -0.000134 -16.542612 -164.424865 2.313285 -179.999991 0.000005 -1.059002 140.329187 4.592757 0.992376 -0.000002 0.000002 2.427418 80.309515 6.134356 3.778490 26.826924 -7.315555 1.780053 -11.197073 167.791588 3.225723 -0.000020 -0.000004 -1.388759 -39.962545 -10.767717 -3.400781 -0.000003 -0.000001 -3.563688 80.946109 -5.850664 -4.798130 29.537935 7.020529 -4.972404 
43.300499 -8.568423 90.390793 -1.778877 0.262244 0.023943 -0.571670 -0.058897 0.191059 2.852586 -0.117818 0.382054 4.497649 -0.113233 0.383438 6.800099 -12.345445 -3.147966 4.894432 18.210077 -4.643059 -27.477168 -28.876636 -34.681368 -139.154668 -198.170863 -75.549945 -0.000000 -0.000019 -0.000006 25.891292 16.120696 0.601952 0.000000 0.000001 -3.008180 -5.000205 -7.999232 0.000093 -23.288193 13.644382 29.540742 -140.249697 186.384060 67.290621 0.000002 0.000002 0.000003 21.364816 -15.725201 -0.481757 0.000005 -0.000017 3.003949 -5.000252 7.998940 -0.000134 -16.963034 -164.490298 2.190803 -179.999991 0.000004 -1.055000 139.476452 4.690843 1.067704 -0.000002 0.000001 2.560728 81.068028 6.100156 3.916696 26.698866 -7.322531 1.616903 -11.553630 167.840752 3.348883 -0.000020 -0.000004 -1.408210 -40.813532 -10.921399 -3.579281 0.000001 -0.000001 -3.767240 81.666140 -5.814845 -4.975904 29.395813 7.043501 -4.799586 
43.277897 -8.528754 90.086296 -1.718913 0.304722 -0.000608 -0.559031 -0.066589 0.195015 2.877967 -0.132693 0.389960 4.523032 -0.128012 0.391521 6.373165 -12.391145 -3.178135 5.282687 18.277448 -4.696879 -27.642301 -28.864052 -34.911856 -139.178724 -198.766605 -75.052858 -0.000000 -0.000018 -0.000005 26.589645 16.110490 0.599512 0.000000 0.000001 -3.008189 -5.000206 -7.999230 0.000092 -23.379608 13.528417 29.691529 -140.271540 186.796740 66.758153 0.000001 0.000003 0.000004 21.860958 -15.635587 -0.506769 0.000006 -0.000017 3.003990 -5.000253 7.998940 -0.000134 -17.385383 -164.566182 2.058948 -179.999991 0.000004 -1.051995 138.660763 4.790519 1.137929 -0.000002 0.000004 2.681950 81.754783 6.065066 4.054857 26.589897 -7.327867 1.477717 -11.905583 167.885217 3.472829 -0.000019 -0.000003 -1.426480 -41.633432 -11.062471 -3.751367 -0.000000 0.000001 -3.960788 82.334488 -5.779777 -5.145636 29.276615 7.062127 -4.654958 
43.276199 -8.479491 89.822685 -1.649290 0.352289 -0.034055 -0.544296 -0.074446 0.200100 2.907670 -0.148018 0.400127 4.552733 -0.143215 0.401872 5.840674 -12.437629 -3.216376 5.771951 18.343825 -4.764030 -27.838762 -28.880092 -35.183356 -139.190335 -199.397524 -74.524631 -0.000001 -0.000018 -0.000007 27.336905 16.088383 0.601475 0.000000 0.000002 -3.008199 -5.000205 -7.999229 0.000092 -23.499288 13.416932 29.887193 -140.290706 187.229596 66.154528 0.000001 0.000003 0.000004 22.427672 -15.529330 -0.538710 0.000007 -0.000017 3.004021 -5.000253 7.998940 -0.000134 -17.823174 -164.655480 1.916861 -179.999991 0.000005 -1.049003 137.859951 4.891764 1.206142 -0.000004 0.000004 2.797881 82.407052 6.028949 4.196043 26.486731 -7.332382 1.345364 -12.264808 167.925474 3.600909 -0.000020 -0.000005 -1.444650 -42.439879 -11.197540 -3.921150 -0.000004 -0.000002 -4.152370 82.978090 -5.744572 -5.314455 29.163569 7.079260 -4.517701 
